<svg width="146" height="34" viewBox="0 0 146 34" fill="none" xmlns="http://www.w3.org/2000/svg">
<g filter="url(#filter0_d_268_2027)">
<path d="M51.3009 25.8762C48.3192 25.8762 45.8565 24.8855 43.9127 22.904C41.969 20.9225 40.9971 18.4786 40.9971 15.5724C40.9971 12.6473 41.969 10.2034 43.9127 8.24077C45.8565 6.25926 48.3192 5.2685 51.3009 5.2685C53.0937 5.2685 54.745 5.69311 56.2547 6.54233C57.7833 7.37268 58.9722 8.50497 59.8215 9.93921L56.4529 11.8924C55.9622 11.0055 55.264 10.3166 54.3581 9.82598C53.4523 9.31645 52.4332 9.06169 51.3009 9.06169C49.376 9.06169 47.8191 9.66558 46.6302 10.8734C45.4602 12.0811 44.8752 13.6475 44.8752 15.5724C44.8752 17.4784 45.4602 19.0353 46.6302 20.2431C47.8191 21.4509 49.376 22.0548 51.3009 22.0548C52.4332 22.0548 53.4523 21.8094 54.3581 21.3188C55.2828 20.8092 55.9811 20.1204 56.4529 19.2523L59.8215 21.2055C58.9722 22.6398 57.7928 23.7815 56.283 24.6307C54.7733 25.4611 53.1126 25.8762 51.3009 25.8762Z" fill="url(#paint0_linear_268_2027)"/>
<path d="M74.4763 23.7249C73.0231 25.1591 71.2492 25.8762 69.1545 25.8762C67.0597 25.8762 65.2858 25.1591 63.8327 23.7249C62.3985 22.2718 61.6813 20.4979 61.6813 18.4031C61.6813 16.3084 62.3985 14.5439 63.8327 13.1096C65.2858 11.6565 67.0597 10.93 69.1545 10.93C71.2492 10.93 73.0231 11.6565 74.4763 13.1096C75.9294 14.5439 76.6559 16.3084 76.6559 18.4031C76.6559 20.4979 75.9294 22.2718 74.4763 23.7249ZM66.4087 21.2055C67.1447 21.9415 68.0599 22.3095 69.1545 22.3095C70.249 22.3095 71.1643 21.9415 71.9003 21.2055C72.6363 20.4695 73.0043 19.5354 73.0043 18.4031C73.0043 17.2708 72.6363 16.3367 71.9003 15.6007C71.1643 14.8647 70.249 14.4967 69.1545 14.4967C68.0599 14.4967 67.1447 14.8647 66.4087 15.6007C65.6915 16.3367 65.333 17.2708 65.333 18.4031C65.333 19.5354 65.6915 20.4695 66.4087 21.2055Z" fill="url(#paint1_linear_268_2027)"/>
<path d="M79.5079 25.4799V11.3263H83.1595V25.4799H79.5079Z" fill="url(#paint2_linear_268_2027)"/>
<path d="M94.6543 10.93C96.2018 10.93 97.4756 11.4489 98.4758 12.4869C99.4949 13.5248 100.004 14.959 100.004 16.7896V25.4799H96.3527V17.2425C96.3527 16.2989 96.098 15.5818 95.5885 15.0912C95.0789 14.5816 94.3995 14.3269 93.5503 14.3269C92.6067 14.3269 91.8519 14.6194 91.2857 15.2044C90.7196 15.7894 90.4365 16.6669 90.4365 17.837V25.4799H86.7849V11.3263H90.4365V12.9115C91.3235 11.5905 92.7294 10.93 94.6543 10.93Z" fill="url(#paint3_linear_268_2027)"/>
<path d="M111.643 10.93C113.549 10.93 115.172 11.6565 116.512 13.1096C117.871 14.5439 118.55 16.3084 118.55 18.4031C118.55 20.4979 117.871 22.2718 116.512 23.7249C115.172 25.1591 113.549 25.8762 111.643 25.8762C109.661 25.8762 108.133 25.1874 107.057 23.8098V25.4799H103.405V5.6648H107.057V12.9964C108.133 11.6188 109.661 10.93 111.643 10.93ZM108.161 21.2905C108.897 22.0264 109.831 22.3944 110.964 22.3944C112.096 22.3944 113.03 22.0264 113.766 21.2905C114.521 20.5356 114.898 19.5731 114.898 18.4031C114.898 17.2331 114.521 16.2801 113.766 15.5441C113.03 14.7892 112.096 14.4118 110.964 14.4118C109.831 14.4118 108.897 14.7892 108.161 15.5441C107.425 16.2801 107.057 17.2331 107.057 18.4031C107.057 19.5731 107.425 20.5356 108.161 21.2905Z" fill="url(#paint4_linear_268_2027)"/>
<path d="M121.408 25.4799V11.3263H125.06V25.4799H121.408Z" fill="url(#paint5_linear_268_2027)"/>
<path d="M135.422 25.8762C133.29 25.8762 131.507 25.1591 130.072 23.7249C128.657 22.2907 127.949 20.5167 127.949 18.4031C127.949 16.2895 128.657 14.5156 130.072 13.0813C131.507 11.6471 133.29 10.93 135.422 10.93C136.8 10.93 138.055 11.2602 139.187 11.9207C140.32 12.5812 141.178 13.4682 141.763 14.5816L138.621 16.4216C138.338 15.8366 137.904 15.3742 137.319 15.0345C136.753 14.6948 136.111 14.525 135.394 14.525C134.3 14.525 133.394 14.893 132.677 15.629C131.959 16.3461 131.601 17.2708 131.601 18.4031C131.601 19.5165 131.959 20.4412 132.677 21.1772C133.394 21.8943 134.3 22.2529 135.394 22.2529C136.13 22.2529 136.781 22.0925 137.347 21.7717C137.932 21.432 138.366 20.9696 138.649 20.3846L141.82 22.1963C141.197 23.3097 140.32 24.2061 139.187 24.8855C138.055 25.546 136.8 25.8762 135.422 25.8762Z" fill="url(#paint6_linear_268_2027)"/>
<path d="M79.7351 8.97673C80.188 9.41078 80.7164 9.6278 81.3203 9.6278C81.943 9.6278 82.4714 9.41078 82.9055 8.97673C83.3584 8.52381 83.5849 7.99541 83.5849 7.39152C83.5849 6.78763 83.3584 6.25922 82.9055 5.80631C82.4714 5.35339 81.943 5.12693 81.3203 5.12693C80.7164 5.12693 80.188 5.35339 79.7351 5.80631C79.301 6.25922 79.084 6.78763 79.084 7.39152C79.084 7.99541 79.301 8.52381 79.7351 8.97673Z" fill="#0FD38A"/>
<path d="M120.647 8.97673C121.1 9.41078 121.628 9.6278 122.232 9.6278C122.855 9.6278 123.384 9.41078 123.818 8.97673C124.271 8.52381 124.497 7.99541 124.497 7.39152C124.497 6.78763 124.271 6.25922 123.818 5.80631C123.384 5.35339 122.855 5.12693 122.232 5.12693C121.628 5.12693 121.1 5.35339 120.647 5.80631C120.213 6.25922 119.996 6.78763 119.996 7.39152C119.996 7.99541 120.213 8.52381 120.647 8.97673Z" fill="#0FD38A"/>
</g>
<path fill-rule="evenodd" clip-rule="evenodd" d="M30.4315 11.8357L25.838 3.87477C25.2789 2.90574 24.4746 2.10108 23.5061 1.5417C22.5377 0.982317 21.439 0.687931 20.3208 0.688141H11.1351C10.0168 0.687931 8.91822 0.982317 7.94973 1.5417C6.98124 2.10108 6.17701 2.90574 5.6179 3.87477L1.02442 11.8357C0.465272 12.8045 0.170898 13.9036 0.170898 15.0223C0.170898 16.1411 0.465272 17.2402 1.02442 18.209L5.6179 26.1699C6.17701 27.1389 6.98124 27.9436 7.94973 28.503C8.91822 29.0624 10.0168 29.3568 11.1351 29.3565H20.3208C21.439 29.3568 22.5377 29.0624 23.5061 28.503C24.4746 27.9436 25.2789 27.1389 25.838 26.1699L30.4315 18.209C30.9906 17.2402 31.285 16.1411 31.285 15.0223C31.285 13.9036 30.9906 12.8045 30.4315 11.8357ZM23.607 19.2035C23.4511 19.4982 23.2779 19.7834 23.0882 20.0575C22.0351 21.5888 20.524 22.7467 18.7719 23.3646C17.0198 23.9826 15.1171 24.0288 13.3371 23.4966C11.5571 22.9644 9.99164 21.8813 8.8656 20.4028C7.73956 18.9244 7.11097 17.1268 7.07017 15.2684C7.02938 13.4101 7.57849 11.5866 8.63856 10.0601C9.69864 8.53362 11.2151 7.38274 12.97 6.77288C14.7249 6.16302 16.6278 6.12558 18.4053 6.66595C20.1828 7.20631 21.7433 8.29666 22.8626 9.78026C23.023 9.9922 23.1746 10.2117 23.315 10.4387C24.1261 11.7462 24.5799 13.2439 24.6311 14.782C24.6824 16.3201 24.3293 17.8447 23.607 19.2035Z" fill="url(#paint7_linear_268_2027)"/>
<g filter="url(#filter1_d_268_2027)">
<path d="M19.0417 16.9741C19.0844 16.9215 19.1307 16.87 19.1771 16.8199C19.5121 16.4589 19.9189 16.1721 20.3713 15.9777C20.8237 15.7834 21.3117 15.6859 21.804 15.6914C22.2963 15.697 22.7819 15.8055 23.2298 16.01C23.6777 16.2145 24.078 16.5104 24.4048 16.8788C24.4298 16.9215 24.4562 16.9628 24.4825 17.003C24.5633 17.1286 24.6516 17.2492 24.7469 17.3642C24.7673 17.39 24.789 17.4147 24.8121 17.4381C25.4179 18.1305 26.2592 18.573 27.1727 18.6795C28.0862 18.7861 29.0067 18.5493 29.7555 18.0149C30.5043 17.4806 31.0279 16.6869 31.2247 15.788C31.4216 14.8891 31.2775 13.9491 30.8206 13.1504C30.7444 13.0123 30.6577 12.8802 30.5612 12.7554C30.2282 12.3136 29.8008 11.952 29.3101 11.6969C28.8194 11.4419 28.2779 11.2999 27.7252 11.2814C27.1726 11.2629 26.6228 11.3683 26.1161 11.5899C25.6095 11.8116 25.1588 12.1438 24.7971 12.5623C24.7557 12.6099 24.7156 12.6588 24.6767 12.7077C24.6116 12.7905 24.5502 12.8745 24.4938 12.9623C24.4424 13.0401 24.3947 13.1203 24.3496 13.2031C24.0215 13.579 23.617 13.8806 23.1632 14.0878C22.7094 14.2949 22.2166 14.4029 21.7178 14.4045C21.219 14.4061 20.7256 14.3012 20.2704 14.0969C19.8153 13.8926 19.409 13.5936 19.0784 13.2198C19.0767 13.2167 19.0751 13.2133 19.0733 13.2102C18.9965 13.0723 18.9099 12.9402 18.814 12.8148C18.3435 12.1913 17.6883 11.7322 16.9418 11.5029C16.1953 11.2736 15.3956 11.2858 14.6564 11.5378C13.9173 11.7897 13.2764 12.2686 12.8251 12.9062C12.3738 13.5438 12.135 14.3077 12.1428 15.089C12.1505 15.8703 12.4045 16.6292 12.8684 17.2577C13.3323 17.8862 13.9825 18.3522 14.7266 18.5894C15.4706 18.8266 16.2704 18.8229 17.0122 18.5788C17.754 18.3346 18.3999 17.8626 18.8579 17.2298L19.0417 16.9741Z" fill="#4AFFBC"/>
</g>
<defs>
<filter id="filter0_d_268_2027" x="36.9971" y="5.12693" width="108.823" height="28.7493" filterUnits="userSpaceOnUse" color-interpolation-filters="sRGB">
<feFlood flood-opacity="0" result="BackgroundImageFix"/>
<feColorMatrix in="SourceAlpha" type="matrix" values="0 0 0 0 0 0 0 0 0 0 0 0 0 0 0 0 0 0 127 0" result="hardAlpha"/>
<feOffset dy="4"/>
<feGaussianBlur stdDeviation="2"/>
<feComposite in2="hardAlpha" operator="out"/>
<feColorMatrix type="matrix" values="0 0 0 0 0 0 0 0 0 0 0 0 0 0 0 0 0 0 0.08 0"/>
<feBlend mode="normal" in2="BackgroundImageFix" result="effect1_dropShadow_268_2027"/>
<feBlend mode="normal" in="SourceGraphic" in2="effect1_dropShadow_268_2027" result="shape"/>
</filter>
<filter id="filter1_d_268_2027" x="7.14258" y="8.27933" width="29.168" height="17.4853" filterUnits="userSpaceOnUse" color-interpolation-filters="sRGB">
<feFlood flood-opacity="0" result="BackgroundImageFix"/>
<feColorMatrix in="SourceAlpha" type="matrix" values="0 0 0 0 0 0 0 0 0 0 0 0 0 0 0 0 0 0 127 0" result="hardAlpha"/>
<feOffset dy="2"/>
<feGaussianBlur stdDeviation="2.5"/>
<feComposite in2="hardAlpha" operator="out"/>
<feColorMatrix type="matrix" values="0 0 0 0 0.0958333 0 0 0 0 0.0958333 0 0 0 0 0.0958333 0 0 0 0.2 0"/>
<feBlend mode="normal" in2="BackgroundImageFix" result="effect1_dropShadow_268_2027"/>
<feBlend mode="normal" in="SourceGraphic" in2="effect1_dropShadow_268_2027" result="shape"/>
</filter>
<linearGradient id="paint0_linear_268_2027" x1="91.4085" y1="5.2685" x2="91.4085" y2="25.8762" gradientUnits="userSpaceOnUse">
<stop stop-color="white"/>
<stop offset="1" stop-color="white" stop-opacity="0.76"/>
</linearGradient>
<linearGradient id="paint1_linear_268_2027" x1="91.4085" y1="5.2685" x2="91.4085" y2="25.8762" gradientUnits="userSpaceOnUse">
<stop stop-color="white"/>
<stop offset="1" stop-color="white" stop-opacity="0.76"/>
</linearGradient>
<linearGradient id="paint2_linear_268_2027" x1="91.4085" y1="5.2685" x2="91.4085" y2="25.8762" gradientUnits="userSpaceOnUse">
<stop stop-color="white"/>
<stop offset="1" stop-color="white" stop-opacity="0.76"/>
</linearGradient>
<linearGradient id="paint3_linear_268_2027" x1="91.4085" y1="5.2685" x2="91.4085" y2="25.8762" gradientUnits="userSpaceOnUse">
<stop stop-color="white"/>
<stop offset="1" stop-color="white" stop-opacity="0.76"/>
</linearGradient>
<linearGradient id="paint4_linear_268_2027" x1="91.4085" y1="5.2685" x2="91.4085" y2="25.8762" gradientUnits="userSpaceOnUse">
<stop stop-color="white"/>
<stop offset="1" stop-color="white" stop-opacity="0.76"/>
</linearGradient>
<linearGradient id="paint5_linear_268_2027" x1="91.4085" y1="5.2685" x2="91.4085" y2="25.8762" gradientUnits="userSpaceOnUse">
<stop stop-color="white"/>
<stop offset="1" stop-color="white" stop-opacity="0.76"/>
</linearGradient>
<linearGradient id="paint6_linear_268_2027" x1="91.4085" y1="5.2685" x2="91.4085" y2="25.8762" gradientUnits="userSpaceOnUse">
<stop stop-color="white"/>
<stop offset="1" stop-color="white" stop-opacity="0.76"/>
</linearGradient>
<linearGradient id="paint7_linear_268_2027" x1="2.14552" y1="14.594" x2="30.6951" y2="15.4933" gradientUnits="userSpaceOnUse">
<stop offset="0.07193" stop-color="#08CC82"/>
<stop offset="0.49053" stop-color="#0FD38A"/>
<stop offset="0.94483" stop-color="#0FD38A"/>
</linearGradient>
</defs>
</svg>
