<svg width="37" height="30" viewBox="0 0 37 30" fill="none" xmlns="http://www.w3.org/2000/svg">
<path fill-rule="evenodd" clip-rule="evenodd" d="M30.4315 11.8357L25.838 3.87477C25.2789 2.90574 24.4746 2.10108 23.5061 1.5417C22.5377 0.982317 21.439 0.687931 20.3208 0.688141H11.1351C10.0168 0.687931 8.91822 0.982317 7.94973 1.5417C6.98124 2.10108 6.17701 2.90574 5.6179 3.87477L1.02442 11.8357C0.465272 12.8045 0.170898 13.9036 0.170898 15.0223C0.170898 16.1411 0.465272 17.2402 1.02442 18.209L5.6179 26.1699C6.17701 27.1389 6.98124 27.9436 7.94973 28.503C8.91822 29.0624 10.0168 29.3568 11.1351 29.3565H20.3208C21.439 29.3568 22.5377 29.0624 23.5061 28.503C24.4746 27.9436 25.2789 27.1389 25.838 26.1699L30.4315 18.209C30.9906 17.2402 31.285 16.1411 31.285 15.0223C31.285 13.9036 30.9906 12.8045 30.4315 11.8357ZM23.607 19.2035C23.4511 19.4982 23.2779 19.7834 23.0882 20.0575C22.0351 21.5888 20.524 22.7467 18.7719 23.3646C17.0198 23.9826 15.1171 24.0288 13.3371 23.4966C11.5571 22.9644 9.99164 21.8813 8.8656 20.4028C7.73956 18.9244 7.11097 17.1268 7.07017 15.2684C7.02938 13.4101 7.57849 11.5866 8.63856 10.0601C9.69864 8.53362 11.2151 7.38274 12.97 6.77288C14.7249 6.16302 16.6278 6.12558 18.4053 6.66595C20.1828 7.20631 21.7433 8.29666 22.8626 9.78026C23.023 9.9922 23.1746 10.2117 23.315 10.4387C24.1261 11.7462 24.5799 13.2439 24.6311 14.782C24.6824 16.3201 24.3293 17.8447 23.607 19.2035Z" fill="url(#paint0_linear_268_2032)"/>
<g filter="url(#filter0_d_268_2032)">
<path d="M19.0417 16.9741C19.0844 16.9215 19.1307 16.87 19.1771 16.8199C19.5121 16.4589 19.9189 16.1721 20.3713 15.9777C20.8237 15.7834 21.3117 15.6859 21.804 15.6914C22.2963 15.697 22.7819 15.8055 23.2298 16.01C23.6777 16.2145 24.078 16.5104 24.4048 16.8788C24.4298 16.9215 24.4562 16.9628 24.4825 17.003C24.5633 17.1286 24.6516 17.2492 24.7469 17.3642C24.7673 17.39 24.789 17.4147 24.8121 17.4381C25.4179 18.1305 26.2592 18.573 27.1727 18.6795C28.0862 18.7861 29.0067 18.5493 29.7555 18.0149C30.5043 17.4806 31.0279 16.6869 31.2247 15.788C31.4216 14.8891 31.2775 13.9491 30.8206 13.1504C30.7444 13.0123 30.6577 12.8802 30.5612 12.7554C30.2282 12.3136 29.8008 11.952 29.3101 11.6969C28.8194 11.4419 28.2779 11.2999 27.7252 11.2814C27.1726 11.2629 26.6228 11.3683 26.1161 11.5899C25.6095 11.8116 25.1588 12.1438 24.7971 12.5623C24.7557 12.6099 24.7156 12.6588 24.6767 12.7077C24.6116 12.7905 24.5502 12.8745 24.4938 12.9623C24.4424 13.0401 24.3947 13.1203 24.3496 13.2031C24.0215 13.579 23.617 13.8806 23.1632 14.0878C22.7094 14.2949 22.2166 14.4029 21.7178 14.4045C21.219 14.4061 20.7256 14.3012 20.2704 14.0969C19.8153 13.8926 19.409 13.5936 19.0784 13.2198C19.0767 13.2167 19.0751 13.2133 19.0733 13.2102C18.9965 13.0723 18.9099 12.9402 18.814 12.8148C18.3435 12.1913 17.6883 11.7322 16.9418 11.5029C16.1953 11.2736 15.3956 11.2858 14.6564 11.5378C13.9173 11.7897 13.2764 12.2686 12.8251 12.9062C12.3738 13.5438 12.135 14.3077 12.1428 15.089C12.1505 15.8703 12.4045 16.6292 12.8684 17.2577C13.3323 17.8862 13.9825 18.3522 14.7266 18.5894C15.4706 18.8266 16.2704 18.8229 17.0122 18.5788C17.754 18.3346 18.3999 17.8626 18.8579 17.2298L19.0417 16.9741Z" fill="#4AFFBC"/>
</g>
<defs>
<filter id="filter0_d_268_2032" x="7.14258" y="8.27933" width="29.168" height="17.4853" filterUnits="userSpaceOnUse" color-interpolation-filters="sRGB">
<feFlood flood-opacity="0" result="BackgroundImageFix"/>
<feColorMatrix in="SourceAlpha" type="matrix" values="0 0 0 0 0 0 0 0 0 0 0 0 0 0 0 0 0 0 127 0" result="hardAlpha"/>
<feOffset dy="2"/>
<feGaussianBlur stdDeviation="2.5"/>
<feComposite in2="hardAlpha" operator="out"/>
<feColorMatrix type="matrix" values="0 0 0 0 0.0958333 0 0 0 0 0.0958333 0 0 0 0 0.0958333 0 0 0 0.2 0"/>
<feBlend mode="normal" in2="BackgroundImageFix" result="effect1_dropShadow_268_2032"/>
<feBlend mode="normal" in="SourceGraphic" in2="effect1_dropShadow_268_2032" result="shape"/>
</filter>
<linearGradient id="paint0_linear_268_2032" x1="2.14552" y1="14.594" x2="30.6951" y2="15.4933" gradientUnits="userSpaceOnUse">
<stop offset="0.07193" stop-color="#08CC82"/>
<stop offset="0.49053" stop-color="#0FD38A"/>
<stop offset="0.94483" stop-color="#0FD38A"/>
</linearGradient>
</defs>
</svg>
