<svg width="354" height="322" viewBox="0 0 354 322" fill="none" xmlns="http://www.w3.org/2000/svg">
<path fill-rule="evenodd" clip-rule="evenodd" d="M338.71 125.433L287.316 36.3617C281.06 25.5197 272.062 16.5168 261.226 10.2581C250.39 3.99946 238.099 0.70572 225.587 0.70807H122.813C110.301 0.70572 98.0092 3.99946 87.1732 10.2581C76.3373 16.5168 67.3391 25.5197 61.0835 36.3617L9.6893 125.433C3.43325 136.272 0.139648 148.569 0.139648 161.086C0.139648 173.604 3.43325 185.9 9.6893 196.74L61.0835 285.811C67.3391 296.653 76.3373 305.656 87.1732 311.915C98.0092 318.173 110.301 321.467 122.813 321.465H225.587C238.099 321.467 250.39 318.173 261.226 311.915C272.062 305.656 281.06 296.653 287.316 285.811L338.71 196.74C344.966 185.9 348.26 173.604 348.26 161.086C348.26 148.569 344.966 136.272 338.71 125.433ZM262.355 207.867C260.611 211.164 258.672 214.355 256.55 217.422C244.768 234.556 227.86 247.51 208.257 254.424C188.654 261.338 167.365 261.855 147.45 255.901C127.535 249.947 110.019 237.828 97.4205 221.286C84.8217 204.745 77.7887 184.632 77.3323 163.84C76.8759 143.047 83.0195 122.645 94.8802 105.566C106.741 88.4873 123.708 75.6107 143.343 68.7873C162.977 61.9638 184.268 61.545 204.156 67.5908C224.043 73.6367 241.503 85.836 254.026 102.435C255.82 104.807 257.517 107.262 259.088 109.802C268.162 124.432 273.24 141.189 273.813 158.398C274.387 175.607 270.436 192.665 262.355 207.867Z" fill="url(#paint0_linear_268_2032)"/>
<g filter="url(#filter0_d_268_2032)">
<path d="M211.274 182.924C211.751 182.335 212.27 181.76 212.789 181.198C216.537 177.16 221.089 173.95 226.15 171.776C231.212 169.602 236.672 168.51 242.18 168.573C247.688 168.635 253.122 169.849 258.133 172.137C263.144 174.424 267.622 177.736 271.279 181.858C271.559 182.335 271.854 182.798 272.148 183.247C273.052 184.652 274.04 186.002 275.107 187.288C275.335 187.577 275.578 187.853 275.836 188.116C282.614 195.862 292.028 200.813 302.248 202.005C312.469 203.198 322.768 200.548 331.146 194.569C339.523 188.591 345.382 179.711 347.584 169.653C349.786 159.596 348.175 149.078 343.062 140.142C342.21 138.597 341.239 137.119 340.16 135.723C336.435 130.78 331.652 126.734 326.162 123.88C320.671 121.027 314.613 119.438 308.429 119.231C302.246 119.024 296.095 120.203 290.426 122.683C284.758 125.163 279.715 128.88 275.668 133.562C275.205 134.095 274.756 134.642 274.322 135.189C273.592 136.115 272.905 137.056 272.274 138.038C271.699 138.908 271.166 139.806 270.662 140.732C266.99 144.938 262.465 148.312 257.387 150.63C252.31 152.948 246.797 154.156 241.216 154.174C235.635 154.191 230.114 153.018 225.022 150.733C219.93 148.447 215.383 145.101 211.685 140.919C211.665 140.883 211.648 140.846 211.628 140.811C210.769 139.269 209.799 137.79 208.726 136.388C203.462 129.411 196.131 124.274 187.779 121.709C179.427 119.144 170.479 119.28 162.209 122.099C153.939 124.918 146.769 130.276 141.719 137.41C136.67 144.544 133.998 153.09 134.085 161.832C134.172 170.573 137.013 179.065 142.204 186.097C147.394 193.128 154.669 198.343 162.994 200.997C171.318 203.65 180.267 203.609 188.567 200.877C196.866 198.146 204.093 192.865 209.218 185.785L211.274 182.924Z" fill="#4AFFBC"/>
</g>
<defs>
<filter id="filter0_d_268_2032" x="129.083" y="116.208" width="224.462" height="93.7492" filterUnits="userSpaceOnUse" color-interpolation-filters="sRGB">
<feFlood flood-opacity="0" result="BackgroundImageFix"/>
<feColorMatrix in="SourceAlpha" type="matrix" values="0 0 0 0 0 0 0 0 0 0 0 0 0 0 0 0 0 0 127 0" result="hardAlpha"/>
<feOffset dy="2"/>
<feGaussianBlur stdDeviation="2.5"/>
<feComposite in2="hardAlpha" operator="out"/>
<feColorMatrix type="matrix" values="0 0 0 0 0.0958333 0 0 0 0 0.0958333 0 0 0 0 0.0958333 0 0 0 0.2 0"/>
<feBlend mode="normal" in2="BackgroundImageFix" result="effect1_dropShadow_268_2032"/>
<feBlend mode="normal" in="SourceGraphic" in2="effect1_dropShadow_268_2032" result="shape"/>
</filter>
<linearGradient id="paint0_linear_268_2032" x1="22.2328" y1="156.294" x2="341.661" y2="166.356" gradientUnits="userSpaceOnUse">
<stop offset="0.07193" stop-color="#08CC82"/>
<stop offset="0.49053" stop-color="#0FD38A"/>
<stop offset="0.94483" stop-color="#0FD38A"/>
</linearGradient>
</defs>
</svg>
