<svg width="18" height="18" viewBox="0 0 18 18" fill="none" xmlns="http://www.w3.org/2000/svg">
<path fill-rule="evenodd" clip-rule="evenodd" d="M5.55556 2.26739C5.31854 2.26739 5.10682 2.27663 4.91295 2.30088C4.90347 2.30206 4.89397 2.30306 4.88446 2.30388C3.7023 2.40501 2.91821 2.79316 2.41836 3.38145C1.9105 3.97919 1.60391 4.89153 1.60391 6.22139V10.1362C1.60391 12.0305 1.98904 12.9268 2.52537 13.3954C3.08637 13.8856 4.00748 14.0902 5.55556 14.0902H5.9468C6.20375 14.0902 6.44329 14.1721 6.6237 14.2633C6.80458 14.3548 7.00628 14.4963 7.15553 14.6916L7.15969 14.697L8.33442 16.2643C8.47725 16.4557 8.61175 16.4905 8.68556 16.4905C8.75937 16.4905 8.89387 16.4557 9.03669 16.2643L9.03768 16.263L10.2114 14.697C10.4967 14.3165 10.9489 14.0902 11.4243 14.0902H11.8156C13.1459 14.0902 14.0574 13.7854 14.6543 13.2785C15.2414 12.78 15.6296 11.9962 15.7307 10.808C15.7315 10.7984 15.7326 10.7888 15.7337 10.7792C15.758 10.5853 15.7672 10.3734 15.7672 10.1362V6.22139C15.7672 4.77407 15.405 3.82146 14.8095 3.22563C14.2141 2.6298 13.262 2.26739 11.8156 2.26739H5.55556ZM4.74544 0.842356C5.01631 0.809309 5.2887 0.799316 5.55556 0.799316H11.8156C13.4893 0.799316 14.8799 1.21988 15.847 2.18755C16.8141 3.15521 17.2344 4.54661 17.2344 6.22139V10.1362C17.2344 10.4032 17.2244 10.6757 17.1914 10.9468C17.0655 12.3946 16.5637 13.5827 15.6036 14.3979C14.6502 15.2075 13.3512 15.5583 11.8156 15.5583H11.4243C11.4193 15.5583 11.4115 15.5596 11.4027 15.564C11.394 15.5684 11.3882 15.5738 11.3852 15.5779L10.2124 17.1425C10.2122 17.1428 10.212 17.143 10.2118 17.1433C9.83626 17.6463 9.29122 17.9586 8.68556 17.9586C8.07993 17.9586 7.53491 17.6463 7.15935 17.1434C7.15913 17.1431 7.15891 17.1428 7.15869 17.1425L6.00026 15.597C5.99189 15.5907 5.97862 15.582 5.96191 15.5736C5.94685 15.566 5.93399 15.561 5.92532 15.5583H5.55556C3.9834 15.5583 2.5619 15.3764 1.56033 14.5012C0.534099 13.6045 0.136719 12.1568 0.136719 10.1362V6.22139C0.136719 4.68362 0.490374 3.38408 1.30054 2.43056C2.11609 1.4707 3.30276 0.968361 4.74544 0.842356Z" fill="#B9B9B9"/>
<path opacity="0.4" fill-rule="evenodd" clip-rule="evenodd" d="M11.1367 8.62862C11.1367 8.08809 11.5746 7.6499 12.1148 7.6499H12.1237C12.6639 7.6499 13.1018 8.08809 13.1018 8.62862C13.1018 9.16914 12.6639 9.60733 12.1237 9.60733H12.1148C11.5746 9.60733 11.1367 9.16914 11.1367 8.62862Z" fill="#B9B9B9"/>
<path opacity="0.4" fill-rule="evenodd" clip-rule="evenodd" d="M7.71289 8.62862C7.71289 8.08809 8.15081 7.6499 8.69102 7.6499H8.69982C9.24003 7.6499 9.67795 8.08809 9.67795 8.62862C9.67795 9.16914 9.24003 9.60733 8.69982 9.60733H8.69102C8.15081 9.60733 7.71289 9.16914 7.71289 8.62862Z" fill="#B9B9B9"/>
<path opacity="0.4" fill-rule="evenodd" clip-rule="evenodd" d="M4.28906 8.62862C4.28906 8.08809 4.72699 7.6499 5.26719 7.6499H5.27599C5.8162 7.6499 6.25412 8.08809 6.25412 8.62862C6.25412 9.16914 5.8162 9.60733 5.27599 9.60733H5.26719C4.72699 9.60733 4.28906 9.16914 4.28906 8.62862Z" fill="#B9B9B9"/>
</svg>
